<svg width="512" height="512" viewBox="53 15 144 222" fill="none" xmlns="http://www.w3.org/2000/svg">
  <defs>
    <g id="master-circuit2">
      <path d="M 75 70 L 80 70 L 95 85 L 105 85" fill="none" />
      <circle cx="105" cy="85" r="2" fill="#0B0C10" />
      <circle cx="75" cy="70" r="3" fill="#0B0C10" />
      <path d="M 65 105 L 80 105 L 90 115 L 105 115" fill="none" />
      <circle cx="105" cy="115" r="2" fill="#0B0C10" />
      <circle cx="65" cy="105" r="3" fill="#0B0C10" />
      <path d="M 55 140 L 70 140 L 85 125 L 100 125" fill="none" />
      <circle cx="100" cy="125" r="2" fill="#0B0C10" />
      <circle cx="55" cy="140" r="3" fill="#0B0C10" />
      <path d="M 90 45 L 105 55 L 105 70" fill="none" />
      <circle cx="90" cy="45" r="1.5" fill="#0B0C10" />
    </g>

    <g id="master-circuit-flow2">
      <path class="tech-pulse2 c-delay-1" d="M 75 70 L 80 70 L 95 85 L 105 85" fill="none" />
      <path class="tech-pulse2 c-delay-2" d="M 65 105 L 80 105 L 90 115 L 105 115" fill="none" />
      <path class="tech-pulse2 c-delay-3" d="M 55 140 L 70 140 L 85 125 L 100 125" fill="none" />
    </g>

    <style>
      .flow-delay-1 { animation-delay: 0.1s; }
      .flow-delay-2 { animation-delay: 0.3s; }
      .flow-delay-3 { animation-delay: 0.5s; }

      @keyframes circuitPulse2 {
        0%, 80% { stroke-dashoffset: 60; opacity: 0; }
        85% { opacity: 1;  }
        95% { opacity: 1;  }
        100% { stroke-dashoffset: -60; opacity: 0; }
      }
      .tech-pulse2 {
        stroke: #00f2ff;
        stroke-width: 2.5;
        stroke-linecap: round;
        stroke-dasharray: 15 120;
        animation: circuitPulse2 4s infinite linear;
      }
      .c-delay-1 { animation-delay: 0s; }
      .c-delay-2 { animation-delay: 1.3s; }
      .c-delay-3 { animation-delay: 2.6s; }
    </style>
  </defs>

  <g transform="translate(0, 10)">
    <path d="M 125 35 C 170 35, 195 45, 195 60 L 195 140 C 195 180, 160 210, 125 225 C 90 210, 55 180, 55 140 L 55 60 C 55 45, 80 35, 125 35 Z" 
          fill="#00f2ff" stroke="#0B0C10" stroke-width="7" />

    <g stroke="#0B0C10" stroke-width="1.5" opacity="0.4">
      <use href="#master-circuit2" />
      <use href="#master-circuit2" transform="translate(250, 0) scale(-1, 1)" />
      <path d="M 125 35 L 125 65 M 125 185 L 125 225" stroke-dasharray="2 4" stroke-width="2" opacity="0.5" />
    </g>
    <g>
      <use href="#master-circuit-flow2" />
      <use href="#master-circuit-flow2" transform="translate(250, 0) scale(-1, 1)" />
    </g>

    <path d="M 125 160 L 175 145 L 125 155 L 75 145 Z" fill="#0B0C10" opacity="0.1"/>
    <path d="M 125 170 L 185 155 L 125 165 L 65 155 Z" fill="#0B0C10" opacity="0.15"/>
    <path d="M 125 180 L 190 165 L 125 175 L 60 165 Z" fill="none" stroke="#0B0C10" stroke-width="1.5" opacity="0.8"/>
    <polygon points="124,155 126,155 132,180 118,180" fill="#0B0C10" />

    <path d="M 160 85 L 125 65 L 90 85 L 90 125 L 125 145 L 160 125 L 160 105 L 125 105" 
          fill="none" stroke="#0B0C10" stroke-width="14" stroke-linecap="round" stroke-linejoin="round" />

    <polygon points="125,12 145,22 125,32 105,22" fill="#0B0C10" />
    <path d="M 125 22 C 135 27, 140 32, 142 42" fill="none" stroke="#0B0C10" stroke-width="1.5" />
    <rect x="140" y="40" width="4" height="4" fill="#0B0C10" />
  </g>
</svg>
